<?xml version="1.0" encoding="iso-8859-1"?>
<!-- Uploaded to: SVG Repo, www.svgrepo.com, Generator: SVG Repo Mixer Tools -->
<svg height="800px" width="800px" version="1.1" id="Layer_1" xmlns="http://www.w3.org/2000/svg" xmlns:xlink="http://www.w3.org/1999/xlink" 
	 viewBox="0 0 511.999 511.999" xml:space="preserve">
<path style="fill:#C5DCFD;" d="M217.043,267.128H50.086c-9.223,0-16.696-7.479-16.696-16.696V116.867
	c0-9.223,7.473-16.696,16.696-16.696h166.957c9.223,0,16.696,7.473,16.696,16.696v133.566
	C233.738,259.651,226.266,267.128,217.043,267.128z"/>
<path style="fill:#FF6243;" d="M250.434,133.563H16.695c-6.989,0-13.234-4.348-15.657-10.902
	c-2.423-6.555-0.511-13.924,4.794-18.468L122.701,4.019c6.25-5.358,15.478-5.358,21.728,0l116.87,100.174
	c5.305,4.543,7.217,11.913,4.794,18.468C263.669,129.215,257.423,133.563,250.434,133.563z"/>
<path style="fill:#95673F;" d="M150.26,267.128V183.65c0-9.217-7.473-16.696-16.696-16.696s-16.696,7.479-16.696,16.696v83.478
	H150.26z"/>
<path style="fill:#E6B78A;" d="M495.303,144.693H363.852c-27.158,0-53.426,11.353-72.014,31.054l-30.275,31.944l-64.891,68.452
	c-25.266,26.713-24.71,68.007,1.336,94.052c3.005,3.005,6.233,5.677,9.572,8.014c-2.337,0.111-4.564,0.223-6.901,0.223H78.245
	c-36.953,0-67.117,30.164-67.117,67.117c0,36.731,29.051,65.892,66.449,66.449h165.955c6.01,0,12.021-0.223,18.031-0.779
	c46.525-3.784,88.487-22.706,119.986-54.094l72.571-72.571l51.868-43.409c3.784-3.117,6.01-7.903,6.01-12.8V161.389
	C511.999,152.151,504.543,144.693,495.303,144.693z"/>
<path style="fill:#D99E62;" d="M511.999,161.389v166.957c0,4.897-2.226,9.684-6.01,12.8l-51.868,43.409l-72.571,72.571
	c-31.499,31.388-73.461,50.31-119.986,54.094V207.692l30.275-31.944c18.588-19.701,44.856-31.054,72.014-31.054h131.451
	C504.543,144.693,511.999,152.151,511.999,161.389z"/>
<path style="fill:#615349;" d="M495.303,378.433c-9.217,0-16.696-7.473-16.696-16.696v-233.74c0-9.223,7.479-16.696,16.696-16.696
	s16.696,7.473,16.696,16.696v233.74C511.999,370.961,504.521,378.433,495.303,378.433z"/>
<path style="fill:#FFD9B3;" d="M363.852,178.085c-18.031,0-35.395,7.457-47.75,20.591l-54.539,57.544l-40.626,42.852
	c-12.689,13.468-12.466,34.393,0.668,47.527c10.797,10.797,27.158,12.8,39.958,6.122c2.894-1.558,5.788-3.673,8.237-6.122
	l55.096-55.096c6.567-6.567,17.03-6.567,23.597,0c6.567,6.567,6.567,17.03,0,23.597l-60.55,60.55
	c-8.014,8.014-16.807,14.692-26.379,20.146c-18.365,10.463-39.179,16.028-60.884,16.028H78.245
	c-18.588,0-33.725,15.137-33.725,33.725c0,18.254,14.581,32.835,33.28,33.057h163.729c6.79,0,13.468-0.334,20.035-1.002
	c37.621-3.784,71.235-18.922,96.39-44.077l73.016-73.127c0.89-0.779,46.637-39.068,47.638-39.847v-142.47L363.852,178.085
	L363.852,178.085z"/>
<path style="fill:#FFC080;" d="M478.607,178.085v142.47c-1.002,0.779-46.748,39.068-47.638,39.847l-73.016,73.127
	c-25.154,25.155-58.769,40.292-96.39,44.077v-81.809c9.572-5.454,18.365-12.132,26.379-20.146l60.55-60.55
	c6.567-6.567,6.567-17.03,0-23.597c-6.567-6.567-17.03-6.567-23.597,0L269.8,346.6c-2.449,2.449-5.343,4.563-8.237,6.122v-96.501
	l54.539-57.544c12.355-13.134,29.718-20.591,47.75-20.591L478.607,178.085L478.607,178.085z"/>
</svg>