<?xml version="1.0" encoding="iso-8859-1"?>
<!-- Uploaded to: SVG Repo, www.svgrepo.com, Generator: SVG Repo Mixer Tools -->
<svg height="800px" width="800px" version="1.1" id="Layer_1" xmlns="http://www.w3.org/2000/svg" xmlns:xlink="http://www.w3.org/1999/xlink" 
	 viewBox="0 0 503.467 503.467" xml:space="preserve">
<g transform="translate(1 1)">
	<path style="fill:#F2EDDA;" d="M464.067,250.733v53.76l-0.853,0.853c-19.627-18.773-46.08-29.867-75.947-29.867
		c-52.907,0-97.28,36.693-108.373,86.187l-2.56-0.853v34.133H191h-34.133h-34.133H37.4V249.88l179.2-179.2l34.133-34.133
		l34.133,34.133L464.067,250.733z"/>
	<path style="fill:#50DD8E;" d="M276.333,395.8H3.267v102.4h307.2v-30.72C291.693,448.707,278.893,423.96,276.333,395.8z"/>
	<path style="fill:#AAB1BA;" d="M88.6,361.667h68.267V293.4H88.6V361.667z M250.733,139.8c14.507,0,25.6,11.093,25.6,25.6
		s-11.093,25.6-25.6,25.6c-14.507,0-25.6-11.093-25.6-25.6S236.227,139.8,250.733,139.8z"/>
	<path style="fill:#FF7474;" d="M498.2,71.533v213.333l-34.133-34.133l-179.2-179.2H498.2z M216.6,71.533l-179.2,179.2
		L3.267,284.867V71.533h102.4V37.4H88.6V3.267h68.267V37.4H139.8v34.133H216.6z"/>
	<path style="fill:#FFE079;" d="M463.213,306.2c22.187,20.48,34.987,49.493,34.987,81.067c0,61.44-49.493,110.933-110.933,110.933
		c-58.027,0-106.667-45.227-110.933-102.4c0-2.56,0-5.973,0-8.533c0-8.533,0.853-17.067,2.56-24.747
		c11.093-49.493,55.467-86.187,108.373-86.187C416.28,276.333,442.733,287.427,463.213,306.2"/>
	<path style="fill:#AAB1BA;" d="M276.333,361.667l2.56,0.853c-1.707,7.68-2.56,16.213-2.56,24.747c0,2.56,0,5.973,0,8.533l0,0
		h-68.267V293.4h68.267V361.667z"/>
</g>
<path style="fill:#51565F;" d="M388.267,503.467c-63.147,0-115.2-52.053-115.2-115.2s52.053-115.2,115.2-115.2
	s115.2,52.053,115.2,115.2S451.413,503.467,388.267,503.467z M388.267,281.6c-58.88,0-106.667,47.787-106.667,106.667
	s47.787,106.667,106.667,106.667s106.667-47.787,106.667-106.667S447.147,281.6,388.267,281.6z M294.4,503.467H192
	c-2.56,0-4.267-1.707-4.267-4.267c0-2.56,1.707-4.267,4.267-4.267h102.4c2.56,0,4.267,1.707,4.267,4.267
	C298.667,501.76,296.96,503.467,294.4,503.467z M157.867,503.467c-2.56,0-4.267-1.707-4.267-4.267V396.8
	c0-2.56,1.707-4.267,4.267-4.267c2.56,0,4.267,1.707,4.267,4.267v102.4C162.133,501.76,160.427,503.467,157.867,503.467z
	 M123.733,503.467H4.267C1.707,503.467,0,501.76,0,499.2c0-2.56,1.707-4.267,4.267-4.267h119.467c2.56,0,4.267,1.707,4.267,4.267
	C128,501.76,126.293,503.467,123.733,503.467z M261.973,469.333H192c-2.56,0-4.267-1.707-4.267-4.267
	c0-2.56,1.707-4.267,4.267-4.267h69.973c2.56,0,4.267,1.707,4.267,4.267C266.24,467.627,264.533,469.333,261.973,469.333z
	 M123.733,469.333H4.267c-2.56,0-4.267-1.707-4.267-4.267c0-2.56,1.707-4.267,4.267-4.267h119.467c2.56,0,4.267,1.707,4.267,4.267
	C128,467.627,126.293,469.333,123.733,469.333z M388.267,452.267c-2.56,0-4.267-1.707-4.267-4.267v-4.267
	c-14.507-1.707-25.6-14.507-25.6-29.867c0-2.56,1.707-4.267,4.267-4.267s4.267,1.707,4.267,4.267
	c0,11.947,9.387,21.333,21.333,21.333c11.947,0,21.333-9.387,21.333-21.333c0-11.947-9.387-21.333-21.333-21.333
	c-16.213,0-29.867-13.653-29.867-29.867c0-15.36,11.093-27.307,25.6-29.867v-4.267c0-2.56,1.707-4.267,4.267-4.267
	s4.267,1.707,4.267,4.267v4.267c14.507,1.707,25.6,14.507,25.6,29.867c0,2.56-1.707,4.267-4.267,4.267s-4.267-1.707-4.267-4.267
	c0-11.947-9.387-21.333-21.333-21.333c-11.947,0-21.333,9.387-21.333,21.333S376.32,384,388.267,384
	c16.213,0,29.867,13.653,29.867,29.867c0,15.36-11.093,27.307-25.6,29.867V448C392.533,450.56,390.827,452.267,388.267,452.267z
	 M247.467,435.2H192c-2.56,0-4.267-1.707-4.267-4.267c0-2.56,1.707-4.267,4.267-4.267h55.467c2.56,0,4.267,1.707,4.267,4.267
	C251.733,433.493,250.027,435.2,247.467,435.2z M123.733,435.2H4.267c-2.56,0-4.267-1.707-4.267-4.267
	c0-2.56,1.707-4.267,4.267-4.267h119.467c2.56,0,4.267,1.707,4.267,4.267C128,433.493,126.293,435.2,123.733,435.2z M243.2,401.067
	H192c-2.56,0-4.267-1.707-4.267-4.267s1.707-4.267,4.267-4.267h51.2c2.56,0,4.267,1.707,4.267,4.267S245.76,401.067,243.2,401.067z
	 M123.733,401.067H4.267C1.707,401.067,0,399.36,0,396.8s1.707-4.267,4.267-4.267h119.467c2.56,0,4.267,1.707,4.267,4.267
	S126.293,401.067,123.733,401.067z M209.067,366.933c-2.56,0-4.267-1.707-4.267-4.267V294.4c0-2.56,1.707-4.267,4.267-4.267h68.267
	c2.56,0,4.267,1.707,4.267,4.267c0,2.56-1.707,4.267-4.267,4.267h-64v64C213.333,365.227,211.627,366.933,209.067,366.933z
	 M157.867,366.933c-2.56,0-4.267-1.707-4.267-4.267v-12.8H93.867v12.8c0,2.56-1.707,4.267-4.267,4.267
	c-2.56,0-4.267-1.707-4.267-4.267V294.4c0-2.56,1.707-4.267,4.267-4.267h68.267c2.56,0,4.267,1.707,4.267,4.267v68.267
	C162.133,365.227,160.427,366.933,157.867,366.933z M93.867,341.333H153.6v-42.667H93.867V341.333z M38.4,366.933
	c-2.56,0-4.267-1.707-4.267-4.267V294.4c0-2.56,1.707-4.267,4.267-4.267s4.267,1.707,4.267,4.267v68.267
	C42.667,365.227,40.96,366.933,38.4,366.933z M4.267,290.133c-0.853,0-0.853,0-1.707,0C0.853,289.28,0,287.573,0,285.867V72.533
	c0-0.853,0.853-2.56,0.853-3.413s1.707-0.853,3.413-0.853H102.4v-25.6H89.6c-2.56,0-4.267-1.707-4.267-4.267V4.267
	C85.333,1.707,87.04,0,89.6,0h68.267c2.56,0,4.267,1.707,4.267,4.267V38.4c0,2.56-1.707,4.267-4.267,4.267h-12.8v25.6H166.4
	c2.56,0,4.267,1.707,4.267,4.267c0,2.56-1.707,4.267-4.267,4.267h-25.6c-2.56,0-4.267-1.707-4.267-4.267V38.4
	c0-2.56,1.707-4.267,4.267-4.267h12.8v-25.6H93.867v25.6h12.8c2.56,0,4.267,1.707,4.267,4.267v34.133
	c0,2.56-1.707,4.267-4.267,4.267H8.533v198.827L248.32,35.84c0.853-0.853,2.56-0.853,3.413-0.853c1.707,0,2.56,0,3.413,0.853
	l239.787,239.787V76.8H337.067c-2.56,0-4.267-1.707-4.267-4.267c0-2.56,1.707-4.267,4.267-4.267H499.2
	c2.56,0,4.267,1.707,4.267,4.267v213.333c0,1.707-0.853,3.413-2.56,4.267c-1.707,0.853-3.413,0-4.267-0.853L252.587,45.227
	L8.533,289.28C6.827,289.28,5.12,290.133,4.267,290.133z M251.733,196.267c-16.213,0-29.867-13.653-29.867-29.867
	s13.653-29.867,29.867-29.867S281.6,150.187,281.6,166.4S267.947,196.267,251.733,196.267z M251.733,145.067
	c-11.947,0-21.333,9.387-21.333,21.333s9.387,21.333,21.333,21.333c11.947,0,21.333-9.387,21.333-21.333
	S263.68,145.067,251.733,145.067z"/>
</svg>