<?xml version="1.0" encoding="iso-8859-1"?>
<!-- Uploaded to: SVG Repo, www.svgrepo.com, Generator: SVG Repo Mixer Tools -->
<svg version="1.1" id="Layer_1" xmlns="http://www.w3.org/2000/svg" xmlns:xlink="http://www.w3.org/1999/xlink" 
	 viewBox="0 0 512 512" xml:space="preserve">
<path style="fill:#003A7F;" d="M97.371,217.726v-27.353c0-22.398,18.157-40.556,40.556-40.556l0,0
	c22.398,0,40.556,18.157,40.556,40.556v27.353H97.371z"/>
<path style="fill:#7DCE09;" d="M154.645,491.483c0-18.113-14.645-32.847-32.648-32.847c-1.124,0-2.245,0.063-3.361,0.174
	c-5.661-14.885-19.922-24.938-36.09-24.938s-30.427,10.053-36.089,24.938c-1.116-0.113-2.237-0.174-3.364-0.174
	c-18,0-32.645,14.734-32.645,32.847H154.645z"/>
<rect x="204.8" y="316.99" style="fill:#FFFFFF;" width="271.673" height="174.498"/>
<g>
	<rect x="235.446" y="381.45" style="fill:#003A7F;" width="36.791" height="38.154"/>
	<rect x="408.418" y="381.45" style="fill:#003A7F;" width="36.791" height="38.154"/>
</g>
<path style="fill:#5E5E68;" d="M368.888,491.483v-85.341c0-17.251-14.116-31.367-31.367-31.367l0,0
	c-17.251,0-31.367,14.116-31.367,31.367v85.341H368.888z"/>
<path style="fill:#CE1128;" d="M340.015,196.344L501.55,316.985H178.482L340.015,196.344z"/>
<path style="fill:#FFAE18;" d="M471.715,84.054c-26.545,0-48.065-21.521-48.065-48.065c0-5.415,0.909-10.615,2.56-15.472
	c-21.355,4.895-37.289,24-37.289,46.837c0,26.545,21.521,48.065,48.065,48.065c21.13,0,39.062-13.642,45.505-32.593
	C479.025,83.62,475.421,84.054,471.715,84.054z"/>
<path d="M125.197,448.305c-8.63-15.132-24.954-24.881-42.652-24.881s-34.021,9.748-42.65,24.881
	c-6.91,0.512-13.37,2.671-18.998,6.082V149.842c0-29.384,23.906-53.29,53.29-53.29c26.244,0,48.102,19.075,52.478,44.084
	c-22.721,5.143-39.743,25.483-39.743,49.737v27.353c0,5.77,4.679,10.449,10.449,10.449h81.11c5.77,0,10.449-4.679,10.449-10.449
	v-27.353c0-24.766-17.745-45.456-41.187-50.047c-4.688-36.426-35.875-64.672-73.556-64.672C33.281,75.654,0,108.935,0,149.842
	v341.641c0,5.77,4.678,10.449,10.449,10.449h144.196c5.77,0,10.449-4.679,10.449-10.449
	C165.094,468.69,147.472,449.954,125.197,448.305z M168.033,190.373v16.904h-60.212v-16.904c0-16.493,13.331-29.925,29.784-30.099
	c0.109,0.003,0.214,0.017,0.323,0.017s0.214-0.013,0.323-0.017C154.701,160.449,168.033,173.88,168.033,190.373z M23.464,481.034
	c3.727-7.101,11.127-11.951,19.629-11.951c0.732,0,1.512,0.041,2.319,0.122c4.702,0.464,9.131-2.267,10.812-6.682
	c4.142-10.888,14.72-18.203,26.322-18.203c11.604,0,22.182,7.315,26.323,18.202c1.678,4.416,6.111,7.147,10.813,6.683
	c0.806-0.081,1.584-0.122,2.315-0.122c8.503,0,15.905,4.849,19.633,11.951L23.464,481.034L23.464,481.034z"/>
<path d="M368.888,456.127c-5.77,0-10.449,4.679-10.449,10.449v0.19c0,5.77,4.679,10.449,10.449,10.449s10.449-4.679,10.449-10.449
	v-0.19C379.337,460.806,374.659,456.127,368.888,456.127z"/>
<path d="M507.802,308.613L346.268,187.972c-3.708-2.769-8.796-2.769-12.504,0L172.229,308.613
	c-3.607,2.693-5.083,7.394-3.664,11.665c1.419,4.273,5.416,7.155,9.916,7.155h15.87v164.049c0,5.77,4.679,10.449,10.449,10.449
	h271.673c5.77,0,10.449-4.679,10.449-10.449V327.434h14.629c4.501,0,8.497-2.883,9.916-7.155
	C512.886,316.008,511.41,311.307,507.802,308.613z M340.015,209.386l130.081,97.151H209.934L340.015,209.386z M466.023,481.034
	h-149.42v-74.892c0-11.535,9.383-20.919,20.918-20.919s20.919,9.383,20.919,20.919v27.575c0,5.77,4.679,10.449,10.449,10.449
	c5.77,0,10.449-4.679,10.449-10.449v-27.575c0-23.057-18.759-41.817-41.817-41.817c-23.058,0-41.816,18.76-41.816,41.817v74.892
	h-80.457v-153.6h250.775V481.034z"/>
<path d="M436.986,125.869c25.068,0,47.331-15.946,55.398-39.681c1.219-3.587,0.402-7.553-2.137-10.364
	c-2.538-2.81-6.399-4.027-10.092-3.183c-2.789,0.639-5.629,0.964-8.441,0.964c-20.742,0-37.616-16.874-37.616-37.616
	c0-4.122,0.675-8.196,2.004-12.108c1.219-3.587,0.402-7.553-2.136-10.364c-2.539-2.812-6.403-4.029-10.091-3.184
	c-26.734,6.126-45.404,29.575-45.404,57.021C378.472,99.62,404.721,125.869,436.986,125.869z M413.239,38.119
	c1.026,28.553,22.609,51.956,50.36,55.823c-6.9,6.906-16.394,11.029-26.613,11.029c-20.742,0-37.616-16.874-37.616-37.616
	C399.37,55.641,404.658,45.06,413.239,38.119z"/>
<path d="M235.449,430.245c5.77,0,10.449-4.679,10.449-10.449v-27.899h15.897v4.269c0,5.77,4.679,10.449,10.449,10.449
	c5.77,0,10.449-4.679,10.449-10.449v-14.718c0-5.77-4.679-10.449-10.449-10.449h-36.795c-5.77,0-10.449,4.679-10.449,10.449v38.348
	C225.001,425.566,229.68,430.245,235.449,430.245z"/>
<path d="M272.244,409.152c-5.77,0-10.449,4.679-10.449,10.449v0.194c0,5.77,4.679,10.449,10.449,10.449
	c5.77,0,10.449-4.679,10.449-10.449v-0.194C282.693,413.831,278.014,409.152,272.244,409.152z"/>
<path d="M408.421,430.245c5.77,0,10.449-4.679,10.449-10.449v-27.899h15.897v4.269c0,5.77,4.679,10.449,10.449,10.449
	s10.449-4.679,10.449-10.449v-14.718c0-5.77-4.679-10.449-10.449-10.449h-36.795c-5.77,0-10.449,4.679-10.449,10.449v38.348
	C397.972,425.566,402.651,430.245,408.421,430.245z"/>
<path d="M445.215,409.152c-5.77,0-10.449,4.679-10.449,10.449v0.194c0,5.77,4.679,10.449,10.449,10.449s10.449-4.679,10.449-10.449
	v-0.194C455.664,413.831,450.985,409.152,445.215,409.152z"/>
</svg>