<?xml version="1.0" encoding="iso-8859-1"?>
<!-- Uploaded to: SVG Repo, www.svgrepo.com, Generator: SVG Repo Mixer Tools -->
<svg version="1.1" id="Layer_1" xmlns="http://www.w3.org/2000/svg" xmlns:xlink="http://www.w3.org/1999/xlink" 
	 viewBox="0 0 511.999 511.999" xml:space="preserve">
<path style="fill:#DBE9FD;" d="M416.044,189.217H95.957l-40.304,40.304v22.261v232.391c0,9.223,7.473,16.696,16.696,16.696h367.304
	c9.223,0,16.696-7.473,16.696-16.696V229.522L416.044,189.217z"/>
<path style="fill:#C5DCFD;" d="M416.044,189.217H256v311.652h183.652c9.223,0,16.696-7.473,16.696-16.696V229.522L416.044,189.217z"
	/>
<polygon style="fill:#B1C6E4;" points="89.044,467.478 89.044,243.353 89.044,222.609 422.957,222.609 422.957,243.353 
	422.957,467.478 "/>
<polygon style="fill:#9DB0CA;" points="256,467.478 422.957,467.478 422.957,243.353 422.957,222.609 256,222.609 "/>
<path style="fill:#875334;" d="M456.348,211.478L356.174,111.304V94.609c0-9.22,7.475-16.696,16.696-16.696h66.783
	c9.22,0,16.696,7.475,16.696,16.696V211.478z"/>
<polygon style="fill:#DBE9FD;" points="427.174,200.348 256,29.174 84.826,200.348 "/>
<polygon style="fill:#C5DCFD;" points="427.174,200.348 256,29.174 256,200.348 "/>
<path style="fill:#FF6243;" d="M495.305,283.826c-4.272,0-8.544-1.631-11.804-4.892L256,51.435L28.5,278.934
	c-6.521,6.521-17.087,6.521-23.609,0c-6.521-6.516-6.521-17.092,0-23.609L244.195,16.021c6.521-6.521,17.087-6.521,23.609,0
	l239.304,239.304c6.521,6.516,6.521,17.092,0,23.609C503.848,282.195,499.576,283.826,495.305,283.826z"/>
<g>
	<path style="fill:#FF3501;" d="M267.804,16.022c-3.26-3.261-7.532-4.892-11.804-4.892v40.304l227.501,227.501
		c3.261,3.261,7.533,4.892,11.804,4.892s8.544-1.631,11.804-4.892c6.521-6.516,6.521-17.092,0-23.609L267.804,16.022z"/>
	<rect x="289.392" y="222.609" style="fill:#FF3501;" width="33.391" height="111.304"/>
	<rect x="356.174" y="222.609" style="fill:#FF3501;" width="33.391" height="111.304"/>
	<rect x="289.392" y="267.13" style="fill:#FF3501;" width="100.174" height="33.391"/>
</g>
<rect x="155.826" y="222.609" style="fill:#ECEFF0;" width="33.391" height="111.304"/>
<g>
	<rect x="122.435" y="367.304" style="fill:#FF6243;" width="33.391" height="100.174"/>
	<rect x="189.218" y="367.304" style="fill:#FF6243;" width="33.391" height="100.174"/>
	<rect x="122.435" y="400.696" style="fill:#FF6243;" width="100.174" height="33.391"/>
</g>
<rect x="256" y="367.304" style="fill:#DADFE4;" width="33.391" height="100.174"/>
<path style="fill:#60AED5;" d="M356.174,467.478h-66.783v-66.783h50.087c9.22,0,16.696,7.475,16.696,16.696V467.478z"/>
<rect x="55.652" y="333.913" style="fill:#DBE9FD;" width="400.696" height="33.391"/>
<rect x="256" y="333.913" style="fill:#C5DCFD;" width="200.348" height="33.391"/>
</svg>