<?xml version="1.0" encoding="iso-8859-1"?>
<!-- Uploaded to: SVG Repo, www.svgrepo.com, Generator: SVG Repo Mixer Tools -->
<svg version="1.1" id="Layer_1" xmlns="http://www.w3.org/2000/svg" xmlns:xlink="http://www.w3.org/1999/xlink" 
	 viewBox="0 0 512.001 512.001" xml:space="preserve">
<g>
	<rect x="52.183" y="58.701" style="fill:#EAC36E;" width="76.431" height="42.137"/>
	<rect x="52.183" y="174.145" style="fill:#EAC36E;" width="76.431" height="42.137"/>
</g>
<rect x="98.003" y="35.449" style="fill:#E25749;" width="397.957" height="204.089"/>
<rect x="115.734" y="53.174" style="fill:#FF6F52;" width="362.506" height="168.639"/>
<rect x="16.041" style="fill:#FCD577;" width="54.948" height="512.001"/>
<g>
	<path style="fill:#415E72;" d="M364.576,82.59c-4.896,0-8.863,3.968-8.863,8.863v59.828l-38.257-64.356
		c-2.04-3.429-6.12-5.074-9.968-4.017c-3.848,1.058-6.515,4.555-6.515,8.546v92.081c0,4.895,3.967,8.863,8.863,8.863
		s8.863-3.968,8.863-8.863v-59.828l38.257,64.356c1.626,2.734,4.549,4.334,7.618,4.334c0.779,0,1.569-0.103,2.348-0.318
		c3.848-1.058,6.515-4.555,6.515-8.546V91.453C373.439,86.559,369.472,82.59,364.576,82.59z"/>
	<path style="fill:#415E72;" d="M193.992,115.743c0-18.28-14.017-33.152-31.247-33.152h-18.502c-4.895,0-8.863,3.968-8.863,8.863
		v92.081c0,4.895,3.968,8.863,8.863,8.863s8.863-3.968,8.863-8.863v-34.639h4.156l19.256,38.596
		c1.552,3.109,4.683,4.908,7.937,4.908c1.329,0,2.679-0.3,3.949-0.935c4.381-2.185,6.159-7.507,3.974-11.887l-16.779-33.63
		C186.434,140.737,193.992,129.162,193.992,115.743z M162.744,131.17h-9.639v-30.854h9.639c7.456,0,13.522,6.92,13.522,15.427
		S170.201,131.17,162.744,131.17z"/>
	<path style="fill:#415E72;" d="M268.109,100.316c4.896,0,8.863-3.968,8.863-8.863c0-4.895-3.967-8.863-8.863-8.863h-40.381
		c-4.895,0-8.863,3.968-8.863,8.863v92.081c0,4.895,3.968,8.863,8.863,8.863h40.381c4.896,0,8.863-3.968,8.863-8.863
		s-3.967-8.863-8.863-8.863h-31.518v-28.069h31.518c4.896,0,8.863-3.968,8.863-8.863s-3.967-8.863-8.863-8.863h-31.518v-28.561
		H268.109z"/>
	<path style="fill:#415E72;" d="M463.735,82.59H400.92c-4.896,0-8.863,3.968-8.863,8.863c0,4.895,3.967,8.863,8.863,8.863h22.544
		v83.218c0,4.895,3.967,8.863,8.863,8.863c4.896,0,8.863-3.968,8.863-8.863v-83.218h22.545c4.896,0,8.863-3.968,8.863-8.863
		C472.598,86.559,468.631,82.59,463.735,82.59z"/>
</g>
</svg>